# xmcd
#
# Track frame offsets:
# 150
# 14217
# 29178
# 40224
# 52027
# 61906
# 73379
# 84723
# 94106
# 107437
#
# Disc length: 1565 seconds
#
#
# Revision: 0
# Processed by: cddbd v1.5.1PL2 Copyright (c) Steve Scherf et al.
# Submitted via: FreeRIP 2.944 
#
DISCID=92061b0a
DTITLE=Various Country - I Love You Because - Country Love and Heart...break
DYEAR=2005
DGENRE=Country
TTITLE0=A Good Year For The Roses - George Jones
TTITLE1=The Cold Hard Facts Of Live - Porter Wagoner
TTITLE2=I Love You Because - Johnny Cash
TTITLE3=Oh Lonesome Me - Don Gibson
TTITLE4=Knee Deep In The Blues - Marty Robbins
TTITLE5=Just Out Of Reach - Patsy Cline and Willie Nelson
TTITLE6=My Shoes Keep Walking Back To You - Ray Price
TTITLE7=The Pain Of Loving You - Porter Wagoner and Dolly Parton
TTITLE8=Hearts Aren't Made To Break (They're Made To Love) - Lee Greenwood
TTITLE9=You Are My Sunshine - Jerry Lee Lewis
EXTD=3 CD Collection From\nDirect Source Special Products, Inc.
EXTT0=
EXTT1=
EXTT2=
EXTT3=
EXTT4=
EXTT5=
EXTT6=
EXTT7=
EXTT8=
EXTT9=
PLAYORDER=
